<svg xmlns="http://www.w3.org/2000/svg" xmlns:xlink="http://www.w3.org/1999/xlink" id="mscgenjs__svg" width="656" height="436.2" class="mscgenjs__svg" version="1.1" viewBox="0 0 656 436.2"><desc># Generated by mscgen_js - https://sverweij.github.io/mscgen_js # Alice and Bob: interactive data sync msc { hscale=&quot;2&quot;, wordwraparcs=on; alice [label=&quot;Alice&quot;], bob [label=&quot;Bob&quot;]; --- [label=&quot;interactive data sync&quot;]; alice =&gt; alice [label=&quot;add offers to payload state&quot;]; alice &gt;&gt; bob [label=&quot;send payload with offers&quot;]; bob =&gt; bob [label=&quot;add requests to payload state&quot;]; bob &gt;&gt; alice [label=&quot;send payload with requests&quot;]; alice =&gt; alice [label=&quot;add requested messages to state&quot;]; alice &gt;&gt; bob [label=&quot;send payload with messages&quot;]; bob =&gt; bob [label=&quot;add acks to payload state&quot;]; bob &gt;&gt; alice [label=&quot;send payload with acks&quot;]; }</desc><defs><style type="text/css">svg.mscgenjs__svg{font-family:Helvetica,sans-serif;font-size:12px;font-weight:400;font-style:normal;text-decoration:none;background-color:#fff;stroke:#000;stroke-width:2}.mscgenjs__svg path,.mscgenjs__svg rect{fill:none}.mscgenjs__svg .bglayer,.mscgenjs__svg .label-text-background{fill:#fff;stroke:#fff;stroke-width:0}.mscgenjs__svg .comment,.mscgenjs__svg .return{stroke-dasharray:5,3}.mscgenjs__svg text{color:inherit;stroke:none;text-anchor:middle}.mscgenjs__svg text.anchor-start{text-anchor:start}.mscgenjs__svg .arrow-marker{overflow:visible}.mscgenjs__svg .arrow-style{stroke-width:1}.mscgenjs__svg .arcrow{stroke-linecap:butt}.mscgenjs__svg .entity{fill:#fff;stroke-linejoin:round}</style><marker id="mscgenjs__svgcallback-black" class="arrow-marker" markerHeight="10" markerUnits="strokeWidth" markerWidth="10" orient="auto" refX="9" refY="3" viewBox="0 0 10 10"><path d="M 1,1 l 8,2 l-8,2" class="arrow-style" style="stroke-dasharray:100,1;stroke:#000"/></marker><marker id="mscgenjs__svgcallback-l-black" class="arrow-marker" markerHeight="10" markerUnits="strokeWidth" markerWidth="10" orient="auto" refX="9" refY="3" viewBox="0 0 10 10"><path d="M17,1 l-8,2 l 8,2" class="arrow-style" style="stroke-dasharray:100,1;stroke:#000"/></marker><marker id="mscgenjs__svgmethod-black" class="arrow-marker" markerHeight="10" markerUnits="strokeWidth" markerWidth="10" orient="auto" refX="9" refY="3" viewBox="0 0 10 10"><polygon fill="#000" stroke="#000" points="1 1 9 3 1 5" class="arrow-style"/></marker><marker id="mscgenjs__svgmethod-l-black" class="arrow-marker" markerHeight="10" markerUnits="strokeWidth" markerWidth="10" orient="auto" refX="9" refY="3" viewBox="0 0 10 10"><polygon fill="#000" stroke="#000" points="17 1 9 3 17 5" class="arrow-style"/></marker></defs><g id="mscgenjs__svg_body" transform="translate(68,3) scale(1,1)"><g id="mscgenjs__svg_background"><rect width="656" height="436.2" x="-68" y="-3" class="bglayer"/></g><g id="mscgenjs__svg_lifelines"><line x1="100" x2="100" y1="38" y2="76" class="arcrow"/><line x1="420" x2="420" y1="38" y2="76" class="arcrow"/><line x1="100" x2="100" y1="76" y2="114" class="arcrow"/><line x1="420" x2="420" y1="76" y2="114" class="arcrow"/><line x1="100" x2="100" y1="114" y2="155.05" class="arcrow"/><line x1="420" x2="420" y1="114" y2="155.05" class="arcrow"/><line x1="100" x2="100" y1="155.05" y2="193.05" class="arcrow"/><line x1="420" x2="420" y1="155.05" y2="193.05" class="arcrow"/><line x1="100" x2="100" y1="193.05" y2="234.1" class="arcrow"/><line x1="420" x2="420" y1="193.05" y2="234.1" class="arcrow"/><line x1="100" x2="100" y1="234.1" y2="272.1" class="arcrow"/><line x1="420" x2="420" y1="234.1" y2="272.1" class="arcrow"/><line x1="100" x2="100" y1="272.1" y2="313.15" class="arcrow"/><line x1="420" x2="420" y1="272.1" y2="313.15" class="arcrow"/><line x1="100" x2="100" y1="313.15" y2="351.15" class="arcrow"/><line x1="420" x2="420" y1="313.15" y2="351.15" class="arcrow"/><line x1="100" x2="100" y1="351.15" y2="392.2" class="arcrow"/><line x1="420" x2="420" y1="351.15" y2="392.2" class="arcrow"/><line x1="100" x2="100" y1="392.2" y2="430.2" class="arcrow"/><line x1="420" x2="420" y1="392.2" y2="430.2" class="arcrow"/></g><g id="mscgenjs__svg_sequence"><g><g><rect width="200" height="38" class="entity"/><g><text x="100" y="22.75" class="entity-text"><tspan>Alice</tspan></text></g></g><g><rect width="200" height="38" x="320" class="entity"/><g><text x="420" y="22.75" class="entity-text"><tspan>Bob</tspan></text></g></g></g><g><line x1="0" x2="520" y1="95" y2="95" class="comment"/><g><rect width="111" height="13" x="204.5" y="89.75" class="label-text-background"/><text x="260" y="98.75" class="empty-text comment-row-text"><tspan>interactive data sync</tspan></text></g></g><g><path style="stroke:#000" marker-end="url(#mscgenjs__svgmethod-black)" d="M100,126.92 C260,127.02 260,149.72 100,149.72" class="arc directional method"/><g><rect width="144" height="13" x="103" y="112.67" class="label-text-background"/><text x="103" y="121.67" class="directional-text method-text anchor-start"><tspan>add offers to payload state</tspan></text></g></g><g><line x1="100" x2="420" y1="174.05" y2="174.05" marker-end="url(#mscgenjs__svgcallback-black)" class="arc directional return" style="stroke:#000"/><g><rect width="133" height="13" x="193.5" y="160.3" class="label-text-background"/><text x="260" y="169.3" class="directional-text return-text"><tspan>send payload with offers</tspan></text></g></g><g><path style="stroke:#000" marker-end="url(#mscgenjs__svgmethod-black)" d="M420,205.97 C580,206.07 580,228.77 420,228.77" class="arc directional method"/><g><rect width="160" height="13" x="423" y="191.72" class="label-text-background"/><text x="423" y="200.72" class="directional-text method-text anchor-start"><tspan>add requests to payload state</tspan></text></g></g><g><line x1="420" x2="100" y1="253.1" y2="253.1" marker-end="url(#mscgenjs__svgcallback-black)" class="arc directional return" style="stroke:#000"/><g><rect width="149" height="13" x="185.5" y="239.35" class="label-text-background"/><text x="260" y="248.35" class="directional-text return-text"><tspan>send payload with requests</tspan></text></g></g><g><path style="stroke:#000" marker-end="url(#mscgenjs__svgmethod-black)" d="M100,285.02 C260,285.12 260,307.82 100,307.82" class="arc directional method"/><g><rect width="180" height="13" x="103" y="270.77" class="label-text-background"/><text x="103" y="279.77" class="directional-text method-text anchor-start"><tspan>add requested messages to state</tspan></text></g></g><g><line x1="100" x2="420" y1="332.15" y2="332.15" marker-end="url(#mscgenjs__svgcallback-black)" class="arc directional return" style="stroke:#000"/><g><rect width="158" height="13" x="181" y="318.4" class="label-text-background"/><text x="260" y="327.4" class="directional-text return-text"><tspan>send payload with messages</tspan></text></g></g><g><path style="stroke:#000" marker-end="url(#mscgenjs__svgmethod-black)" d="M420,364.07 C580,364.17 580,386.87 420,386.87" class="arc directional method"/><g><rect width="138" height="13" x="423" y="349.82" class="label-text-background"/><text x="423" y="358.82" class="directional-text method-text anchor-start"><tspan>add acks to payload state</tspan></text></g></g><g><line x1="420" x2="100" y1="411.2" y2="411.2" marker-end="url(#mscgenjs__svgcallback-black)" class="arc directional return" style="stroke:#000"/><g><rect width="127" height="13" x="196.5" y="397.45" class="label-text-background"/><text x="260" y="406.45" class="directional-text return-text"><tspan>send payload with acks</tspan></text></g></g></g></g></svg>